<svg width="10" height="11" viewBox="0 0 10 11" fill="none" xmlns="http://www.w3.org/2000/svg">
<path d="M4.96218 0.642334C5.12201 0.642334 5.27529 0.705826 5.38831 0.818843C5.50133 0.93186 5.56482 1.08514 5.56482 1.24497V4.86081H9.18065C9.34048 4.86081 9.49377 4.9243 9.60678 5.03732C9.7198 5.15034 9.78329 5.30362 9.78329 5.46345C9.78329 5.62328 9.7198 5.77656 9.60678 5.88958C9.49377 6.0026 9.34048 6.06609 9.18065 6.06609H5.56482V9.68192C5.56482 9.84175 5.50133 9.99504 5.38831 10.1081C5.27529 10.2211 5.12201 10.2846 4.96218 10.2846C4.80235 10.2846 4.64907 10.2211 4.53605 10.1081C4.42303 9.99504 4.35954 9.84175 4.35954 9.68192V6.06609H0.743703C0.583873 6.06609 0.43059 6.0026 0.317573 5.88958C0.204556 5.77656 0.141064 5.62328 0.141064 5.46345C0.141064 5.30362 0.204556 5.15034 0.317573 5.03732C0.43059 4.9243 0.583873 4.86081 0.743703 4.86081H4.35954V1.24497C4.35954 1.08514 4.42303 0.93186 4.53605 0.818843C4.64907 0.705826 4.80235 0.642334 4.96218 0.642334Z" fill="white"/>
</svg>
