<svg width="14" height="14" viewBox="0 0 14 14" fill="none" xmlns="http://www.w3.org/2000/svg">
<path d="M11.0833 4.08329C11.0833 3.44163 10.5583 2.91663 9.91667 2.91663H8.16667V4.08329H9.91667V5.62913L7.88667 8.16663H5.83333V5.24996H3.5C2.21083 5.24996 1.16667 6.29413 1.16667 7.58329V9.33329H2.33333C2.33333 10.3016 3.115 11.0833 4.08333 11.0833C5.05167 11.0833 5.83333 10.3016 5.83333 9.33329H8.44667L11.0833 6.03746V4.08329ZM2.33333 8.16663V7.58329C2.33333 6.94163 2.85833 6.41663 3.5 6.41663H4.66667V8.16663H2.33333ZM4.08333 9.91663C3.7625 9.91663 3.5 9.65413 3.5 9.33329H4.66667C4.66667 9.65413 4.40417 9.91663 4.08333 9.91663Z" fill="#959595"/>
<path d="M2.91667 3.5H5.83333V4.66667H2.91667V3.5ZM11.0833 7.58333C10.115 7.58333 9.33333 8.365 9.33333 9.33333C9.33333 10.3017 10.115 11.0833 11.0833 11.0833C12.0517 11.0833 12.8333 10.3017 12.8333 9.33333C12.8333 8.365 12.0517 7.58333 11.0833 7.58333ZM11.0833 9.91667C10.7625 9.91667 10.5 9.65417 10.5 9.33333C10.5 9.0125 10.7625 8.75 11.0833 8.75C11.4042 8.75 11.6667 9.0125 11.6667 9.33333C11.6667 9.65417 11.4042 9.91667 11.0833 9.91667Z" fill="#959595"/>
</svg>
