<svg width="16" height="16" viewBox="0 0 16 16" fill="none" xmlns="http://www.w3.org/2000/svg">
<path fill-rule="evenodd" clip-rule="evenodd" d="M13.8339 14.6265H8.99854C8.72254 14.6265 8.49854 14.4025 8.49854 14.1265C8.49854 13.8505 8.72254 13.6265 8.99854 13.6265H13.8339C14.1099 13.6265 14.3339 13.8505 14.3339 14.1265C14.3339 14.4025 14.1099 14.6265 13.8339 14.6265Z" fill="#6E7489"/>
<mask id="mask0_523_1034" style="mask-type:luminance" maskUnits="userSpaceOnUse" x="1" y="2" width="12" height="13">
<path fill-rule="evenodd" clip-rule="evenodd" d="M1.33356 2.00012H12.7873V14.6265H1.33356V2.00012Z" fill="white"/>
</mask>
<g mask="url(#mask0_523_1034)">
<path fill-rule="evenodd" clip-rule="evenodd" d="M8.74039 3.34454L2.46372 11.1945C2.34972 11.3372 2.30772 11.5212 2.34972 11.6979L2.80372 13.6212L4.82972 13.5959C5.02239 13.5939 5.20039 13.5079 5.31839 13.3612C7.46306 10.6779 11.5517 5.56187 11.6677 5.41187C11.7771 5.23454 11.8197 4.98387 11.7624 4.74254C11.7037 4.4952 11.5497 4.2852 11.3277 4.1512C11.2804 4.11854 10.1571 3.24654 10.1224 3.2192C9.69972 2.88054 9.08306 2.9392 8.74039 3.34454ZM2.40907 14.6265C2.17774 14.6265 1.97641 14.4679 1.92241 14.2419L1.37641 11.9279C1.26374 11.4486 1.37574 10.9539 1.68307 10.5699L7.96307 2.71522C7.96574 2.71255 7.96774 2.70922 7.97041 2.70655C8.65907 1.88322 9.90441 1.76188 10.7444 2.43588C10.7777 2.46188 11.8931 3.32855 11.8931 3.32855C12.2984 3.56988 12.6151 4.00122 12.7351 4.51188C12.8544 5.01722 12.7677 5.53855 12.4897 5.97922C12.4691 6.01188 12.4511 6.03988 6.09907 13.9866C5.79307 14.3679 5.33441 14.5899 4.84174 14.5959L2.41574 14.6265H2.40907Z" fill="#6E7489"/>
</g>
<path fill-rule="evenodd" clip-rule="evenodd" d="M10.8156 7.78983C10.7089 7.78983 10.6023 7.75583 10.5109 7.6865L6.87626 4.8945C6.65759 4.7265 6.61626 4.41316 6.78426 4.19316C6.95293 3.9745 7.26626 3.93383 7.48559 4.10183L11.1209 6.89316C11.3396 7.06116 11.3809 7.37516 11.2123 7.5945C11.1143 7.7225 10.9656 7.78983 10.8156 7.78983Z" fill="#6E7489"/>
</svg>
