<svg width="20" height="21" viewBox="0 0 20 21" fill="none" xmlns="http://www.w3.org/2000/svg">
<path d="M9.96218 5.64233C10.122 5.64233 10.2753 5.70583 10.3883 5.81884C10.5013 5.93186 10.5648 6.08514 10.5648 6.24497V9.86081H14.1807C14.3405 9.86081 14.4938 9.9243 14.6068 10.0373C14.7198 10.1503 14.7833 10.3036 14.7833 10.4634C14.7833 10.6233 14.7198 10.7766 14.6068 10.8896C14.4938 11.0026 14.3405 11.0661 14.1807 11.0661H10.5648V14.6819C10.5648 14.8418 10.5013 14.995 10.3883 15.1081C10.2753 15.2211 10.122 15.2846 9.96218 15.2846C9.80235 15.2846 9.64907 15.2211 9.53605 15.1081C9.42304 14.995 9.35954 14.8418 9.35954 14.6819V11.0661H5.74371C5.58388 11.0661 5.43059 11.0026 5.31758 10.8896C5.20456 10.7766 5.14107 10.6233 5.14107 10.4634C5.14107 10.3036 5.20456 10.1503 5.31758 10.0373C5.43059 9.9243 5.58388 9.86081 5.74371 9.86081H9.35954V6.24497C9.35954 6.08514 9.42304 5.93186 9.53605 5.81884C9.64907 5.70583 9.80235 5.64233 9.96218 5.64233Z" fill="white"/>
</svg>
