<svg width="22" height="22" viewBox="0 0 22 22" fill="none" xmlns="http://www.w3.org/2000/svg">
<path fill-rule="evenodd" clip-rule="evenodd" d="M18.4393 5.99462C18.4393 7.77202 16.9978 9.21349 15.2204 9.21349C13.443 9.21349 12.0023 7.77202 12.0023 5.99462C12.0023 4.21723 13.443 2.77576 15.2204 2.77576C16.9978 2.77576 18.4393 4.21723 18.4393 5.99462Z" stroke="#CE7943" stroke-width="1.31425" stroke-linecap="round" stroke-linejoin="round"/>
<path fill-rule="evenodd" clip-rule="evenodd" d="M9.10488 5.99462C9.10488 7.77202 7.6642 9.21349 5.88602 9.21349C4.10941 9.21349 2.66794 7.77202 2.66794 5.99462C2.66794 4.21723 4.10941 2.77576 5.88602 2.77576C7.6642 2.77576 9.10488 4.21723 9.10488 5.99462Z" stroke="#CE7943" stroke-width="1.31425" stroke-linecap="round" stroke-linejoin="round"/>
<path fill-rule="evenodd" clip-rule="evenodd" d="M18.4393 15.2716C18.4393 17.049 16.9978 18.4897 15.2204 18.4897C13.443 18.4897 12.0023 17.049 12.0023 15.2716C12.0023 13.4942 13.443 12.0527 15.2204 12.0527C16.9978 12.0527 18.4393 13.4942 18.4393 15.2716Z" stroke="#CE7943" stroke-width="1.31425" stroke-linecap="round" stroke-linejoin="round"/>
<path fill-rule="evenodd" clip-rule="evenodd" d="M9.10488 15.2716C9.10488 17.049 7.6642 18.4897 5.88602 18.4897C4.10941 18.4897 2.66794 17.049 2.66794 15.2716C2.66794 13.4942 4.10941 12.0527 5.88602 12.0527C7.6642 12.0527 9.10488 13.4942 9.10488 15.2716Z" stroke="#CE7943" stroke-width="1.31425" stroke-linecap="round" stroke-linejoin="round"/>
</svg>
