<svg width="22" height="22" viewBox="0 0 22 22" fill="none" xmlns="http://www.w3.org/2000/svg">
<path d="M8.16935 18.3471V15.6599C8.16933 14.9764 8.72656 14.421 9.41695 14.4164H11.9459C12.6396 14.4164 13.2019 14.9732 13.2019 15.6599V15.6599V18.3555C13.2017 18.9358 13.6696 19.4101 14.2556 19.4237H15.9416C17.6223 19.4237 18.9847 18.0749 18.9847 16.411V16.411V8.76659C18.9757 8.11202 18.6653 7.49735 18.1417 7.0975L12.3758 2.49918C11.3657 1.69852 9.92973 1.69852 8.9196 2.49918L3.17894 7.10585C2.65339 7.50407 2.34244 8.11976 2.33596 8.77493V16.411C2.33596 18.0749 3.69842 19.4237 5.3791 19.4237H7.06505C7.66563 19.4237 8.15249 18.9417 8.15249 18.3471V18.3471" stroke="#CE7943" stroke-width="1.5" stroke-linecap="round" stroke-linejoin="round"/>
</svg>
