<svg width="22" height="22" viewBox="0 0 22 22" fill="none" xmlns="http://www.w3.org/2000/svg">
<path d="M3.34207 2.99463L5.1645 3.31005L6.00825 13.3623C6.07572 14.1833 6.76176 14.8133 7.58535 14.8106H17.1435C17.9294 14.8124 18.5962 14.2341 18.7074 13.4561L19.5389 7.71017C19.6318 7.06793 19.1858 6.47214 18.5445 6.37927C18.4884 6.37138 5.45714 6.367 5.45714 6.367" stroke="#9E9E9E" stroke-width="1.31425" stroke-linecap="round" stroke-linejoin="round"/>
<path d="M13.3085 9.60532H15.7381" stroke="#9E9E9E" stroke-width="1.31425" stroke-linecap="round" stroke-linejoin="round"/>
<path fill-rule="evenodd" clip-rule="evenodd" d="M7.20098 17.848C7.4647 17.848 7.67761 18.0618 7.67761 18.3247C7.67761 18.5884 7.4647 18.8022 7.20098 18.8022C6.93725 18.8022 6.72434 18.5884 6.72434 18.3247C6.72434 18.0618 6.93725 17.848 7.20098 17.848Z" fill="#9E9E9E" stroke="#9E9E9E" stroke-width="1.31425" stroke-linecap="round" stroke-linejoin="round"/>
<path fill-rule="evenodd" clip-rule="evenodd" d="M17.0844 17.848C17.3482 17.848 17.5619 18.0618 17.5619 18.3247C17.5619 18.5884 17.3482 18.8022 17.0844 18.8022C16.8207 18.8022 16.6078 18.5884 16.6078 18.3247C16.6078 18.0618 16.8207 17.848 17.0844 17.848Z" fill="#9E9E9E" stroke="#9E9E9E" stroke-width="1.31425" stroke-linecap="round" stroke-linejoin="round"/>
</svg>
