<svg width="22" height="22" viewBox="0 0 22 22" fill="none" xmlns="http://www.w3.org/2000/svg">
<path d="M8.16932 18.3471V15.6599C8.16931 14.9764 8.72653 14.421 9.41693 14.4164H11.9458C12.6395 14.4164 13.2019 14.9732 13.2019 15.6599V15.6599V18.3555C13.2017 18.9358 13.6696 19.4101 14.2556 19.4237H15.9415C17.6222 19.4237 18.9847 18.0749 18.9847 16.411V16.411V8.76659C18.9757 8.11202 18.6653 7.49735 18.1417 7.0975L12.3758 2.49918C11.3656 1.69852 9.9297 1.69852 8.91957 2.49918L3.17891 7.10585C2.65337 7.50407 2.34241 8.11976 2.33594 8.77493V16.411C2.33594 18.0749 3.6984 19.4237 5.37908 19.4237H7.06503C7.6656 19.4237 8.15246 18.9417 8.15246 18.3471V18.3471" stroke="#9E9E9E" stroke-width="1.5" stroke-linecap="round" stroke-linejoin="round"/>
</svg>
